<?xml version="1.0" encoding="utf-8"?>
<!-- Generator: Adobe Illustrator 19.0.0, SVG Export Plug-In . SVG Version: 6.00 Build 0)  -->
<svg version="1.1" id="Laag_1" xmlns:sketch="http://www.bohemiancoding.com/sketch/ns"
	 xmlns="http://www.w3.org/2000/svg" xmlns:xlink="http://www.w3.org/1999/xlink" x="0px" y="0px" viewBox="-134 346.5 572 499"
	 style="enable-background:new -134 346.5 572 499;" xml:space="preserve">
<title>discover</title>
<desc>Created with Sketch.</desc>
<g>
	<path d="M262.4,582.9c-16.5,0-29.8,5.3-41,16.5c-11.2,11.2-16.5,25.1-16.5,41s6,29.8,17.2,41.7s25.1,17.9,40.4,17.9
		c15.9,0,29.8-6,40.4-17.2c11.2-11.2,16.5-25.8,16.5-43c0-15.9-5.3-29.1-16.5-40.3C291.5,588.8,278.3,582.9,262.4,582.9z"/>
	<path d="M42.7,582.9c-16.5,0-29.8,5.3-41,16.5c-11.2,11.2-16.5,25.1-16.5,41s6,29.8,17.2,41.7s25.1,17.9,40.4,17.9
		c15.9,0,29.8-6,40.4-17.2c11.2-11.2,16.5-25.8,16.5-43c0-15.9-5.3-29.1-16.5-40.3C71.2,588.8,57.9,582.9,42.7,582.9z"/>
	<path d="M359,447.9c-33.1-5.3-66.2-9.3-99.9-11.9l69.5-69.4c2-2,3.3-5.3,3.3-7.9s-1.3-6-3.3-7.9c-4.6-4.6-11.2-4.6-15.9,0
		L230,433.4l-10.6-23.1h-67.5H84.4l-10.6,23.1l-82.7-82.7c-2-2-5.3-3.3-7.9-3.3c-2.6,0-6,1.3-7.9,3.3c-4.6,4.6-4.6,11.2,0,15.9
		L44.7,436c-33.1,2.6-66.8,6.6-99.9,11.9c-43.7,7.3-78.1,45-78.1,80v220.2c0,35.1,34.4,72.7,78.1,80c137,21.8,277.9,21.8,414.8,0
		c43.7-7.3,78.1-45,78.1-80V528C437.7,492.9,402.6,455.2,359,447.9z M130.7,677.4c-4.6,11.9-11.2,21.8-19.8,31.1
		c-9.3,9.3-19.2,16.5-31.1,21.8s-23.8,7.3-37.1,7.3c-13.9,0-26.5-2.6-37.7-7.3c-11.9-4.6-21.8-11.9-31.1-21.8
		c-8.6-9.3-15.2-19.2-19.2-31.1c-5.3-11.2-7.9-23.1-7.9-36.4c0-27.1,9.3-49.6,27.8-68.1c18.5-18.5,41-27.8,68.1-27.8
		c12.6,0,23.8,2.6,35.7,7.3c11.2,4.6,21.8,11.2,30.4,20.5c9.3,9.3,16.5,19.2,21.2,31.1c4.6,11.9,7.3,23.8,7.3,36.4
		C137.3,653.6,135.3,665.5,130.7,677.4z M351,677.4c-4.6,11.9-11.2,21.8-19.8,31.1c-9.3,9.3-19.2,16.5-31.1,21.8s-23.8,7.3-37.1,7.3
		c-13.9,0-26.5-2.6-37.7-7.3s-21.8-11.9-31.1-21.8c-8.6-9.3-15.2-19.2-19.2-31.1c-6-11.2-7.9-23.1-7.9-36.4
		c0-27.1,9.3-49.6,27.8-68.1s41-27.8,68.1-27.8c12.6,0,23.8,2.6,35.7,7.3c11.2,4.6,21.8,11.2,30.4,20.5c9.3,9.3,16.5,19.2,21.2,31.1
		c4.6,11.9,7.3,23.8,7.3,36.4C357.6,653.6,355.7,665.5,351,677.4z"/>
</g>
</svg>
