<?xml version="1.0" encoding="utf-8"?>
<!-- Generator: Adobe Illustrator 19.0.0, SVG Export Plug-In . SVG Version: 6.00 Build 0)  -->
<svg version="1.1" id="Laag_1" xmlns:sketch="http://www.bohemiancoding.com/sketch/ns"
	 xmlns="http://www.w3.org/2000/svg" xmlns:xlink="http://www.w3.org/1999/xlink" x="0px" y="0px" viewBox="-375 550.5 90 90"
	 style="enable-background:new -375 550.5 90 90;" xml:space="preserve">
<title>noun_79685_cc</title>
<desc>Created with Sketch.</desc>
<g>
	<path d="M-312.9,580.4c-1.5-0.9-3-1.7-4.5-2.6c-1.7-1-3.2-2-4.7-3.2c-1.5-1.2-3-2.4-4.5-3.5c-0.8-0.6-1.3-0.2-1.3,0.8
		c0,2.6,0,5.2,0,7.8l0,24.2c-2.1-1.5-4.8-2.5-7.8-2.5c-6.5,0-11.7,4.4-11.7,9.8c0,5.4,5.2,9.8,11.7,9.8c4.3,0,8.3-1.9,10.2-4.9
		c1.9-3.1,1.6-7.9,1.6-10.8c-0.1-6.9,0-13.7,0-20.6c1.1,0.8,2.4,1.5,3.5,2.1c0.6,0.3,1.2,0.6,1.8,0.9c1.6,0.8,3.1,1.5,4.8,2.3
		c0.4,0.2,0.7,0.3,1,0.4c0.6,0.1,0.6-0.6,0.6-1.3c0-2.6,0-4.8,0-7.4C-312.4,581-312.4,580.7-312.9,580.4z"/>
	<path d="M-285,551.3c0-0.8,0.1-0.8-0.7-0.8h-2.5c-0.8,0-0.7,0-0.7,0.8v1.9c0,0.7-0.6,1.3-1.3,1.3h-5.2c-0.7,0-1.3-0.6-1.3-1.3v-1.7
		c0-1.1,0.1-1-1-1h-1.9c-1,0-1-0.2-1,0.8c0,0.2,0,0.4,0,0.6v2.5c0,2.1-1.8,3.9-3.9,3.9h-50.8c-2.1,0-3.9-1.8-3.9-3.9v-2v-1.2
		c0-0.8-0.3-0.7-1.9-0.7h-3.1c-0.1,0-0.1,0-0.2,0h-5.2c-0.1,0-0.1,0-0.2,0h-2.9c-2.3,0-2.1-0.3-2.1,2c0,28.5,0.1,57.5,0,86
		c0,1.8-0.4,1.9,1.4,1.9h1.4c1.6,0,1.2-0.2,1.2-1.8v-0.9c0-0.7,0.6-1.3,1.3-1.3h5.2c0.7,0,1.3,0.6,1.3,1.3v1.3
		c0,1.5-0.2,1.4,1.3,1.4h1.3c1.1,0,1.3,0,1.3-0.4v-1v-2.6c0-2.1,1.8-3.9,3.9-3.9h50.8c2.1,0,3.9,1.8,3.9,3.9v1.5c0,0.1,0,0.3,0,0.4
		c0,2.4,0,2,2.3,2h2.8h0h5.2h0h2.6c2.7,0,2.6,0.4,2.6-2.3V551.3z M-371,559.7c0-0.7,0.6-1.3,1.3-1.3h5.2c0.7,0,1.3,0.6,1.3,1.3v5.2
		c0,0.7-0.6,1.3-1.3,1.3h-5.2c-0.7,0-1.3-0.6-1.3-1.3V559.7z M-371,580.6v-5.2c0-0.7,0.6-1.3,1.3-1.3h5.2c0.7,0,1.3,0.6,1.3,1.3v5.2
		c0,0.7-0.6,1.3-1.3,1.3h-5.2C-370.4,581.9-371,581.3-371,580.6z M-363.2,591v5.2c0,0.7-0.6,1.3-1.3,1.3h-5.2
		c-0.7,0-1.3-0.6-1.3-1.3V591c0-0.7,0.6-1.3,1.3-1.3h5.2C-363.7,589.7-363.2,590.2-363.2,591z M-371,606.6c0-0.7,0.6-1.3,1.3-1.3
		h5.2c0.7,0,1.3,0.6,1.3,1.3v5.2c0,0.7-0.6,1.3-1.3,1.3h-5.2c-0.7,0-1.3-0.6-1.3-1.3V606.6z M-363.1,627.4c0,0.7-0.6,1.3-1.3,1.3
		h-5.2c-0.7,0-1.3-0.6-1.3-1.3v-5.2c0-0.7,0.6-1.3,1.3-1.3h5.2c0.7,0,1.3,0.6,1.3,1.3V627.4z M-300.7,624.8c0,2.2-1.8,4-4,4h-50.6
		c-2.2,0-4-1.8-4-4v-58.4c0-2.2,1.8-4,4-4v0h50.6c2.2,0,4,1.8,4,4V624.8z M-296.7,563.6c0-0.7,0.6-1.3,1.3-1.3h5.2
		c0.7,0,1.3,0.6,1.3,1.3v5.2c0,0.7-0.6,1.3-1.3,1.3h-5.2c-0.7,0-1.3-0.6-1.3-1.3V563.6z M-296.8,579.3c0-0.7,0.6-1.3,1.3-1.3h5.2
		c0.7,0,1.3,0.6,1.3,1.3v5.2c0,0.7-0.6,1.3-1.3,1.3h-5.2c-0.7,0-1.3-0.6-1.3-1.3V579.3z M-288.9,594.9v5.2c0,0.7-0.6,1.3-1.3,1.3
		h-5.2c-0.7,0-1.3-0.6-1.3-1.3v-5.2c0-0.7,0.6-1.3,1.3-1.3h5.2C-289.5,593.6-288.9,594.2-288.9,594.9z M-296.8,610.5
		c0-0.7,0.6-1.3,1.3-1.3h5.2c0.7,0,1.3,0.6,1.3,1.3v5.2c0,0.7-0.6,1.3-1.3,1.3h-5.2c-0.7,0-1.3-0.6-1.3-1.3V610.5z M-288.9,631.4
		c0,0.7-0.6,1.3-1.3,1.3h-5.2c-0.7,0-1.3-0.6-1.3-1.3v-5.2c0-0.7,0.6-1.3,1.3-1.3h5.2c0.7,0,1.3,0.6,1.3,1.3V631.4z"/>
</g>
</svg>
