<?xml version="1.0" encoding="utf-8"?>
<!-- Generator: Adobe Illustrator 19.0.0, SVG Export Plug-In . SVG Version: 6.00 Build 0)  -->
<svg version="1.1" id="Laag_1" xmlns:sketch="http://www.bohemiancoding.com/sketch/ns"
	 xmlns="http://www.w3.org/2000/svg" xmlns:xlink="http://www.w3.org/1999/xlink" x="0px" y="0px" viewBox="-138 344.5 565 502"
	 style="enable-background:new -138 344.5 565 502;" xml:space="preserve">
<title>people</title>
<desc>Created with Sketch.</desc>
<g>
	<path d="M387.5,528.3H223.1l-51.7-150.2c-15-43.6-39.3-43.6-54.3,0L65.3,528.3H-99.1c-46.1,0-51.7,19.6-12.4,43.8l131.8,81.2
		l-44,149.1c-13,44.2,6.1,57.4,42.8,29.5l125.1-95.3l125.1,95.3c36.7,27.9,55.8,14.7,42.8-29.5l-44-149.1l131.8-81.2
		C439.2,547.9,433.6,528.3,387.5,528.3z M144.5,694.7c-40.3,0-73-32.6-73-72.9s32.7-72.9,73-72.9s73,32.6,73,72.9
		S184.8,694.7,144.5,694.7z"/>
	<ellipse cx="144.5" cy="621.8" rx="31.3" ry="31.2"/>
</g>
</svg>
