<?xml version="1.0" encoding="utf-8"?>
<!-- Generator: Adobe Illustrator 19.0.0, SVG Export Plug-In . SVG Version: 6.00 Build 0)  -->
<svg version="1.1" id="Laag_1" xmlns:sketch="http://www.bohemiancoding.com/sketch/ns"
	 xmlns="http://www.w3.org/2000/svg" xmlns:xlink="http://www.w3.org/1999/xlink" x="0px" y="0px" viewBox="-120 345.5 601 500"
	 style="enable-background:new -120 345.5 601 500;" xml:space="preserve">
<title>shows</title>
<desc>Created with Sketch.</desc>
<g>
	<circle cx="364.2" cy="458" r="37.5"/>
	<path d="M430.6,345.5h-500c-27.6,0-50,22.4-50,50v325.1c0,27.6,22.4,50,50,50h200v36.3c-61.5,14.7-125,38.7-125,38.7h400
		c0,0-82.6-30.8-150-44.1v-30.9h175c27.6,0,50-22.4,50-50V395.5C480.6,367.9,458.2,345.5,430.6,345.5z M430.6,720.6c0,0-500,0-500,0
		c0,0,0-325.1,0-325.1c0,0,500,0,500,0C430.6,395.5,430.6,720.6,430.6,720.6z"/>
</g>
</svg>
